<?xml version="1.0" encoding="iso-8859-1"?>
<!-- Generator: Adobe Illustrator 24.1.2, SVG Export Plug-In . SVG Version: 6.00 Build 0)  -->
<svg version="1.1" id="Layer_1" xmlns="http://www.w3.org/2000/svg" xmlns:xlink="http://www.w3.org/1999/xlink" x="0px" y="0px"
	 viewBox="0 0 32 32" style="enable-background:new 0 0 32 32;" xml:space="preserve">
<g id="Layer_2_1_">
	<path style="fill:#E14504;" d="M19.43,13.101c-0.393,0-0.766-0.233-0.925-0.619c-0.21-0.51,0.033-1.095,0.543-1.306l7.391-3.05
		c0.51-0.21,1.096,0.032,1.307,0.543c0.21,0.51-0.033,1.095-0.543,1.306l-7.391,3.05C19.687,13.076,19.558,13.101,19.43,13.101z"/>
	<path style="fill:#E14504;" d="M19.27,22.2c-0.393,0-0.766-0.232-0.925-0.618c-0.21-0.511,0.033-1.096,0.543-1.307l7.391-3.05
		c0.509-0.205,1.096,0.031,1.307,0.543c0.21,0.511-0.033,1.096-0.543,1.307l-7.391,3.05C19.526,22.176,19.397,22.2,19.27,22.2z"/>
	<path style="fill:#E14504;" d="M19.35,17.65c-0.393,0-0.766-0.233-0.925-0.619c-0.21-0.51,0.033-1.095,0.543-1.306l7.391-3.05
		c0.51-0.211,1.096,0.031,1.307,0.543c0.21,0.51-0.033,1.095-0.543,1.306l-7.391,3.05C19.606,17.626,19.478,17.65,19.35,17.65z"/>
	<path style="fill:#E14504;" d="M16.04,29.59c-0.196,0-0.39-0.058-0.557-0.17c-0.277-0.186-0.443-0.497-0.443-0.83V9.02
		c0-0.406,0.245-0.771,0.621-0.925l12.96-5.31c0.308-0.127,0.658-0.09,0.937,0.095C29.834,3.065,30,3.376,30,3.71v19.56
		c0,0.405-0.245,0.771-0.62,0.925l-12.96,5.321C16.297,29.565,16.168,29.59,16.04,29.59z M17.04,9.691V27.1L28,22.6V5.2L17.04,9.691
		z M29,23.27h0.01H29z"/>
	<path style="fill:#E14504;" d="M12.569,13.101c-0.127,0-0.256-0.024-0.381-0.076l-7.39-3.05C4.288,9.763,4.045,9.179,4.256,8.668
		s0.796-0.754,1.306-0.543l7.39,3.05c0.511,0.211,0.754,0.795,0.543,1.306C13.335,12.867,12.962,13.101,12.569,13.101z"/>
	<path style="fill:#E14504;" d="M12.729,22.2c-0.127,0-0.256-0.024-0.381-0.075l-7.39-3.05c-0.511-0.211-0.754-0.796-0.543-1.307
		c0.21-0.51,0.796-0.75,1.306-0.543l7.39,3.05c0.511,0.211,0.754,0.796,0.543,1.307C13.495,21.968,13.123,22.2,12.729,22.2z"/>
	<path style="fill:#E14504;" d="M12.649,17.65c-0.127,0-0.256-0.024-0.381-0.076l-7.39-3.05c-0.511-0.21-0.754-0.795-0.543-1.306
		c0.21-0.51,0.796-0.754,1.306-0.543l7.39,3.05c0.511,0.21,0.754,0.795,0.543,1.306C13.415,17.417,13.042,17.65,12.649,17.65z"/>
	<path style="fill:#E14504;" d="M15.96,29.59c-0.128,0-0.257-0.024-0.379-0.074l-4.22-1.729c0-0.001,0-0.001,0-0.001l-8.74-3.591
		C2.245,24.04,2,23.675,2,23.27V3.71c0-0.333,0.166-0.645,0.443-0.831C2.72,2.695,3.072,2.659,3.379,2.785l12.96,5.31
		c0.376,0.154,0.621,0.52,0.621,0.925v19.57c0,0.333-0.166,0.645-0.443,0.83C16.35,29.532,16.156,29.59,15.96,29.59z M12.12,25.935
		l2.84,1.165V9.691L4,5.2V22.6L12.12,25.935z"/>
</g>
</svg>
