<?xml version="1.0" encoding="iso-8859-1"?>
<!-- Generator: Adobe Illustrator 24.1.2, SVG Export Plug-In . SVG Version: 6.00 Build 0)  -->
<svg version="1.1" id="Layer_1" xmlns="http://www.w3.org/2000/svg" xmlns:xlink="http://www.w3.org/1999/xlink" x="0px" y="0px"
	 viewBox="0 0 18 18" style="enable-background:new 0 0 18 18;" xml:space="preserve">
<g id="Layer_2_1_">
	<path style="fill:#E14504;" d="M15.25,18H2.75C1.233,18,0,16.767,0,15.25V2.75C0,1.233,1.233,0,2.75,0h12.5
		C16.767,0,18,1.233,18,2.75v12.5C18,16.767,16.767,18,15.25,18z M2.75,2C2.336,2,2,2.336,2,2.75v12.5C2,15.663,2.336,16,2.75,16
		h12.5c0.413,0,0.75-0.337,0.75-0.75V2.75C16,2.336,15.663,2,15.25,2H2.75z"/>
</g>
</svg>
