<?xml version="1.0" encoding="iso-8859-1"?>
<!-- Generator: Adobe Illustrator 24.1.2, SVG Export Plug-In . SVG Version: 6.00 Build 0)  -->
<svg version="1.1" id="Layer_1" xmlns="http://www.w3.org/2000/svg" xmlns:xlink="http://www.w3.org/1999/xlink" x="0px" y="0px"
	 viewBox="0 0 6.96 11.9" style="enable-background:new 0 0 6.96 11.9;" xml:space="preserve">
<g id="Layer_2_1_">
	<path style="fill:#E14504;" d="M5.999,11.9c-0.199,0-0.399-0.06-0.575-0.183l-0.502-0.372l-4.63-4.639c0,0,0-0.001-0.001-0.001l0,0
		C0.29,6.704,0.289,6.703,0.288,6.702S0.287,6.701,0.286,6.7c-0.001,0-0.002-0.002-0.002-0.002C0.283,6.697,0.282,6.696,0.281,6.695
		c0,0-0.001-0.001-0.001-0.001C0.279,6.693,0.279,6.693,0.278,6.692c0,0-0.002,0-0.002-0.002c-0.001,0-0.001-0.001-0.002-0.002
		c0,0-0.001-0.001-0.001-0.002l0,0C0.271,6.684,0.27,6.684,0.27,6.683c-0.001,0-0.001-0.001-0.002-0.002
		c0-0.001-0.001-0.002-0.002-0.002S0.264,6.677,0.263,6.676c0,0.001,0-0.001-0.002-0.002h0c0-0.001-0.001-0.001-0.002-0.002l0,0
		c0-0.001-0.001-0.001-0.002-0.002l0,0C0.166,6.567,0.098,6.452,0.056,6.33l0,0c0-0.001-0.001-0.003-0.002-0.005l0,0
		c0-0.001,0-0.002-0.001-0.003l0,0c0-0.001,0-0.002-0.001-0.003l0,0c0-0.001,0-0.002-0.001-0.003l0,0c0-0.001,0-0.002-0.001-0.003
		l0,0c0-0.001,0-0.002-0.001-0.003l0,0c0-0.002-0.001-0.003-0.001-0.003c0-0.002,0-0.003-0.001-0.003c0-0.001,0-0.001,0-0.002
		c0,0-0.001-0.002-0.001-0.003v0c0-0.001,0-0.001-0.001-0.002v0c0,0,0-0.001-0.001-0.002c0,0,0-0.002-0.001-0.003
		c0,0,0-0.001,0-0.003c-0.001,0-0.001-0.001-0.001-0.003c0,0,0-0.002-0.001-0.003c0,0,0,0-0.001-0.003c0,0,0-0.001,0-0.002
		c0,0,0,0,0,0c0-0.002,0-0.003,0-0.003c0-0.001,0-0.002-0.001-0.003c0-0.002-0.001-0.003-0.001-0.003c0-0.002,0-0.003,0-0.003
		c-0.001-0.002,0-0.003-0.001-0.003c0-0.002,0-0.003,0-0.003c-0.001-0.001,0-0.002-0.001-0.003c0-0.001,0-0.002,0-0.002l0,0
		c0-0.001,0-0.003,0-0.003c0-0.001,0-0.002,0-0.002l0,0c0-0.001-0.001-0.001,0-0.003c0,0,0-0.001,0-0.002l0,0
		c0-0.001,0-0.001,0-0.003c-0.001-0.001,0-0.001-0.001-0.003c0,0,0-0.001,0-0.002c0,0,0-0.002,0-0.003c0-0.001,0-0.001,0-0.003
		C0.025,6.225,0.025,6.225,0.025,6.223c0-0.001,0-0.002,0-0.003c0,0,0-0.002-0.001-0.003c0-0.001,0-0.002,0-0.003
		c0-0.001,0-0.002,0-0.003c0-0.001,0-0.001,0-0.003c-0.001-0.001,0-0.002-0.001-0.003c0-0.001,0-0.002,0-0.003
		c0-0.001,0-0.001,0-0.003c0,0,0-0.001,0-0.003c-0.001-0.001,0-0.002-0.001-0.003c0-0.002,0-0.002,0-0.003s0-0.001,0-0.001
		c0-0.002,0-0.003,0-0.003c-0.001-0.002,0-0.003,0-0.003c-0.001-0.002,0-0.003-0.001-0.003c0-0.001,0-0.001,0-0.002l0,0
		c0-0.001,0-0.001,0-0.002l0,0c0-0.001-0.001,0.003,0-0.003c0,0,0-0.001,0-0.002c0,0,0-0.001,0-0.003c0,0,0-0.001,0-0.003
		c0-0.001,0-0.002,0-0.003c0-0.001,0-0.002,0-0.003c0-0.001,0-0.002,0-0.003c-0.001-0.001,0-0.002,0-0.003c0,0,0-0.001,0-0.001
		c0-0.001,0-0.003,0-0.003c0-0.002,0-0.003,0-0.003c0-0.002,0-0.003,0-0.003c0-0.001,0-0.001,0-0.002v0c0-0.001,0-0.001,0-0.002
		c0,0,0-0.001,0-0.003c0,0,0-0.001,0-0.003c-0.001-0.001,0-0.002,0-0.003c0-0.001,0-0.002,0-0.003s0-0.002,0-0.003s0-0.002,0-0.003
		c0,0,0-0.001,0-0.001c0-0.002,0-0.003,0-0.003c-0.001-0.002,0-0.003,0-0.003c0-0.001,0-0.001,0-0.002c0,0,0-0.001,0-0.003
		c0,0,0,0,0-0.003c0,0,0-0.002,0-0.003c0-0.001,0-0.002,0-0.003s0-0.002,0-0.003c-0.001-0.002,0-0.002,0-0.003c0,0,0-0.002,0-0.003
		c0,0,0-0.001,0-0.001c0-0.001,0-0.001,0-0.002l0,0c0-0.001,0-0.001,0-0.002c0,0,0-0.001,0-0.003c0,0,0-0.001,0-0.003
		c0-0.001,0-0.002,0-0.003c0,0,0-0.001,0-0.003c0-0.001,0-0.002,0-0.003s0-0.001,0-0.003v0c0-0.001,0-0.001,0-0.002v0
		c0-0.001,0-0.001,0-0.002c0,0,0-0.001,0-0.003c0,0,0,0,0,0c0-0.002,0-0.002,0-0.003s0-0.002,0-0.003c0-0.001,0-0.002,0-0.003
		c0,0,0-0.001,0-0.002c0-0.001,0-0.002,0-0.003v0c0-0.001,0-0.001,0-0.002v0c0-0.001,0-0.001,0-0.002v0c0-0.002,0-0.003,0-0.003
		C0,6.03,0,6.029,0,6.028s0-0.002,0-0.003c0,0,0-0.001,0-0.002C0,6.023,0,6.022,0,6.02v0c0-0.001,0-0.001,0-0.002v0
		c0-0.001,0-0.001,0-0.002v0c0-0.002,0-0.003,0-0.003c0-0.002,0-0.003,0-0.003c0-0.001,0-0.002,0-0.003c0,0,0-0.001,0-0.003
		c0,0,0-0.001,0-0.003c-0.001,0,0-0.001,0-0.003v0c0-0.001,0-0.001,0-0.002v0C0,5.991,0,5.99,0,5.99c0-0.002,0-0.003,0-0.003
		c0-0.001,0-0.002,0-0.003l0,0c0-0.001,0-0.002,0-0.003l0,0C0,5.98,0,5.979,0,5.978c0,0,0-0.001,0-0.003v0c0-0.001,0-0.001,0-0.002
		v0C0,5.97,0,5.969,0,5.969c0-0.001,0-0.002,0-0.003l0,0c0-0.001,0-0.002,0-0.003l0,0c0-0.001,0-0.002,0-0.003l0,0
		c0-0.001,0-0.002,0-0.003l0,0c0-0.001,0-0.002,0-0.003l0,0c0-0.001,0-0.002,0-0.003v0c0-0.001,0-0.002,0-0.002v0
		c0-0.001,0-0.002,0-0.003l0,0c0-0.001,0-0.002,0-0.003l0,0c0-0.001,0-0.002,0-0.003l0,0c0.006-0.108,0.03-0.215,0.072-0.316l0,0
		c0-0.001,0-0.002,0.001-0.002l0,0c0-0.001,0.001-0.002,0.001-0.003h0c0-0.001,0-0.002,0.001-0.003l0,0c0-0.001,0-0.002,0.001-0.003
		l0,0c0-0.001,0.001-0.002,0.001-0.002v0c0,0,0-0.001,0.001-0.002l0,0c0-0.001,0.001-0.002,0.001-0.003l0,0
		c0-0.001,0-0.002,0.001-0.003l0,0c0-0.001,0.001-0.002,0.001-0.002v0c0,0,0-0.001,0.001-0.002l0,0c0-0.001,0.001-0.002,0.001-0.003
		l0,0c0.001-0.001,0-0.002,0.001-0.003c0-0.001,0.001-0.001,0.001-0.002c0,0,0.001,0,0.001-0.003h0c0-0.002,0.001-0.002,0.001-0.003
		c0-0.001,0.001-0.001,0.001-0.002v0c0,0,0-0.001,0.001-0.002c0,0,0-0.002,0.001-0.002c0,0,0,0,0,0c0-0.001,0.001-0.001,0.001-0.002
		v0c0,0,0-0.001,0.001-0.002c0,0,0-0.001,0.001-0.002c0,0,0,0,0,0c0-0.001,0.001-0.001,0.001-0.002v0c0,0,0.001,0.002,0.001-0.003
		c0.001-0.001,0.001-0.002,0.001-0.002c0-0.001,0-0.001,0.001-0.002c0,0-0.001,0,0.001-0.002c0,0,0.001-0.002,0.001-0.003v0
		c0.001-0.001,0.001-0.002,0.001-0.003c0.001-0.001,0.001-0.003,0.001-0.002c0-0.001,0-0.001,0.001-0.002l0,0
		c0-0.002,0.002-0.002,0.001-0.003c0,0,0-0.001,0.001-0.002l0,0c0-0.001,0.001-0.001,0.001-0.003c0,0,0-0.001,0.001-0.002
		c0,0,0-0.001,0.001-0.002c0,0,0-0.001,0-0.001c0.001-0.001,0.001-0.001,0.001-0.003C0.122,5.521,0.122,5.52,0.123,5.52
		c0.001-0.001,0.001-0.001,0.001-0.003c0.001-0.001,0.002-0.001,0.001-0.003c0.001,0,0.002-0.001,0.001-0.002
		c0.001-0.001,0.002-0.001,0.001-0.003C0.129,5.507,0.13,5.507,0.13,5.506c0-0.001,0.001-0.002,0.002-0.003
		c0-0.001,0-0.002,0.001-0.002c0-0.001,0.001-0.002,0.001-0.003c0.001-0.001,0.002,0,0.001-0.002c0.001,0,0.002-0.002,0.001-0.003
		c0.001-0.001,0-0.001,0.002-0.002c0-0.001,0.001-0.001,0.001-0.003c0,0,0.001-0.001,0.001-0.002c0.001,0,0.001-0.002,0.002-0.003
		c0,0,0-0.002,0.001-0.002c0-0.001,0.002-0.001,0.001-0.003c0.001,0,0.001-0.001,0.002-0.002c0,0,0-0.001,0-0.001
		c0,0,0-0.001,0.001-0.002c0,0,0.001-0.002,0.001-0.002c0-0.001,0,0,0.002-0.002c0,0,0-0.001,0-0.001
		c0.001-0.002,0.002-0.001,0.001-0.003C0.158,5.461,0.158,5.46,0.158,5.46C0.159,5.459,0.159,5.458,0.16,5.458
		c0.001-0.001,0.001-0.001,0.002-0.003c0.001-0.001,0.001-0.002,0.001-0.002c0,0,0.001-0.001,0.001-0.002
		c0.001,0.001,0.001-0.001,0.001-0.002c0-0.001,0.001-0.001,0.002-0.003c0,0,0.001-0.001,0.001-0.002c0,0,0,0,0,0
		C0.171,5.44,0.171,5.44,0.172,5.439c0,0,0.001-0.001,0.001-0.002c0,0,0,0,0.001-0.002c0,0,0,0,0,0c0.001,0,0-0.003,0.002-0.002
		c0-0.001,0.002-0.002,0.001-0.003c0,0,0.002,0,0.002-0.002c0,0,0.001-0.001,0.001-0.002c0,0,0.001-0.001,0.002-0.002c0,0,0,0,0,0
		c0-0.001,0.001-0.003,0.002-0.002c0-0.001,0.001-0.001,0.001-0.002c0,0,0.001-0.002,0.002-0.002c0,0,0.001-0.001,0.002-0.002
		c0,0,0,0,0,0c0-0.001,0-0.004,0.002-0.002c0.001-0.001,0.001-0.004,0.002-0.002c0-0.001,0.001-0.001,0.001-0.002
		c0,0,0-0.001,0.002-0.002c0,0,0.001-0.001,0.002-0.002c0,0,0.001-0.002,0.002-0.002c0,0,0,0,0,0
		c0.001-0.001,0.002-0.002,0.002-0.002c0-0.001,0.001-0.001,0.002-0.002l0,0c0-0.001,0.001-0.001,0.002-0.002l0,0
		c0-0.001,0.001-0.001,0.002-0.002l0,0c0-0.001,0.001-0.001,0.002-0.002l0,0c0-0.001,0.001-0.001,0.002-0.002l0,0
		c0-0.001,0.001-0.002,0.002-0.002s0-0.001,0.002-0.002c0,0,0.001-0.002,0.002-0.002v0c0,0,0.001-0.001,0.002-0.002v0
		C0.224,5.37,0.225,5.369,0.224,5.369c0.001-0.001,0.001-0.003,0.002-0.002c0.002,0,0.001-0.003,0.002-0.002
		c0,0,0.001-0.003,0.002-0.002c0.001,0,0.001-0.003,0.002-0.002c0,0,0.001-0.001,0.002-0.002l0,0c0-0.001,0.002-0.002,0.002-0.002
		c0.001,0,0.001-0.001,0.002-0.002v0c0.001,0,0.002-0.001,0.002-0.002c0,0,0.001-0.001,0.002-0.002c0,0,0-0.001,0.002-0.002l0,0
		c0.001-0.001,0.001-0.002,0.002-0.002c0,0.001,0.001-0.001,0.002-0.002l0,0c0-0.001,0.001-0.001,0.002-0.002l0,0
		c0.001-0.001,0.001-0.001,0.002-0.002c0.001,0,0.001,0,0.002-0.002l0,0C0.256,5.331,0.258,5.33,0.257,5.33
		C0.259,5.329,0.26,5.328,0.26,5.328c0,0,0.001-0.001,0.002-0.002c0,0.001,0.001-0.001,0.002-0.002c0.001,0.001,0.001,0,0.002-0.002
		l0,0c0-0.001,0.001-0.001,0.002-0.002c0.001,0,0.001-0.001,0.002-0.002c0,0,0,0,0,0c0,0,0.001-0.001,0.002-0.002
		c0,0,0.001,0,0.002-0.002c0.001,0,0.001-0.001,0.002-0.002h0c0.001-0.002,0.002-0.002,0.002-0.002c0.001,0,0.001-0.001,0.002-0.002
		l0,0c0,0,0.001-0.001,0.002-0.002c0,0,0.001-0.001,0.002-0.002c0,0,0,0,0,0c0-0.001,0.001-0.001,0.002-0.002l0,0
		c0-0.001,0.001,0,0.002-0.002c0.001,0,0.002-0.002,0.002-0.002l5-5c0.391-0.391,1.023-0.391,1.414,0s0.391,1.023,0,1.414
		L2.414,6.001l3.863,3.871l0.3,0.211c0.451,0.318,0.56,0.941,0.241,1.394C6.623,11.753,6.313,11.9,5.999,11.9z"/>
</g>
</svg>
