<?xml version="1.0" encoding="iso-8859-1"?>
<!-- Generator: Adobe Illustrator 24.1.2, SVG Export Plug-In . SVG Version: 6.00 Build 0)  -->
<svg version="1.1" id="Layer_1" xmlns="http://www.w3.org/2000/svg" xmlns:xlink="http://www.w3.org/1999/xlink" x="0px" y="0px"
	 viewBox="0 0 11.9 6.96" style="enable-background:new 0 0 11.9 6.96;" xml:space="preserve">
<g id="Layer_2_1_">
	<path style="fill:#E14504;" d="M10.9,7c-0.262,0-0.522-0.103-0.719-0.305L5.993,2.421L1.707,6.707
		c-0.391,0.391-1.023,0.391-1.414,0s-0.391-1.023,0-1.414l5-5c0.109-0.109,0.238-0.188,0.375-0.236l0,0
		C5.669,0.056,5.67,0.056,5.67,0.056c0.001,0,0.001,0,0.002-0.001c0,0,0.001,0,0.003-0.001c0,0,0.002,0,0.002-0.001
		c0,0,0.002,0,0.003-0.001c0.001,0,0.001,0,0.003,0c0.001,0,0.002-0.001,0.002-0.001C5.688,0.049,5.69,0.049,5.689,0.049
		c0.001,0,0.001,0,0.002-0.001c0.001,0.001,0.002,0,0.003-0.001c0,0,0,0,0,0C5.796,0.015,5.87,0.009,6.007,0
		c0.109,0.001,0.218,0.019,0.322,0.055c0,0,0,0.001,0.002,0.001c0,0,0,0,0,0c0.001,0-0.001,0.004,0.003,0.001
		c0,0,0,0.003,0.003,0.001C6.339,0.06,6.34,0.06,6.341,0.06c0.001,0,0.001,0,0.003,0.001c0,0,0.002,0.001,0.003,0.001
		c0,0,0.002,0,0.003,0.001c0,0,0.001,0,0.001,0c0.002,0,0.001,0.001,0.003,0.001c0,0,0.001,0,0.002,0.001l0,0
		c0.001,0,0.002,0,0.003,0.001l0,0C6.489,0.116,6.61,0.194,6.714,0.3l4.905,5.005c0.384,0.397,0.373,1.03-0.023,1.414
		C11.401,6.906,11.15,7,10.9,7z"/>
</g>
</svg>
