<?xml version="1.0" encoding="iso-8859-1"?>
<!-- Generator: Adobe Illustrator 24.1.2, SVG Export Plug-In . SVG Version: 6.00 Build 0)  -->
<svg version="1.1" id="Layer_1" xmlns="http://www.w3.org/2000/svg" xmlns:xlink="http://www.w3.org/1999/xlink" x="0px" y="0px"
	 viewBox="0 0 32 32" style="enable-background:new 0 0 32 32;" xml:space="preserve">
<g id="Layer_2_1_">
	<path id="contact_outer_filled-2_1_" style="fill:#FFB753;" d="M16,0C7.163,0,0,7.163,0,16s7.163,16,16,16s16-7.163,16-16
		S24.837,0,16,0z M16.16,4.64c2.656-0.006,4.814,2.144,4.82,4.8c0.006,2.656-2.144,4.814-4.8,4.82s-4.814-2.144-4.82-4.8
		c0-0.003,0-0.007,0-0.01C11.36,6.797,13.507,4.646,16.16,4.64z M24.16,24.64c-4.882,3.575-11.518,3.575-16.4,0
		c-0.78-0.595-1.124-1.602-0.87-2.55c1.321-5.009,6.452-7.999,11.462-6.678c3.266,0.861,5.817,3.412,6.678,6.678
		c0.281,0.952-0.048,1.978-0.83,2.59L24.16,24.64z"/>
</g>
</svg>
