<?xml version="1.0" encoding="iso-8859-1"?>
<!-- Generator: Adobe Illustrator 24.1.2, SVG Export Plug-In . SVG Version: 6.00 Build 0)  -->
<svg version="1.1" id="Layer_1" xmlns="http://www.w3.org/2000/svg" xmlns:xlink="http://www.w3.org/1999/xlink" x="0px" y="0px"
	 viewBox="0 0 11.9 11.9" style="enable-background:new 0 0 11.9 11.9;" xml:space="preserve">
<g id="Layer_2_1_">
	<path style="fill:#E14504;" d="M10.9,11.9c-0.256,0-0.512-0.098-0.707-0.293L5.95,7.364l-4.243,4.242
		c-0.391,0.392-1.023,0.391-1.414,0.002c-0.391-0.391-0.392-1.023-0.001-1.414L4.536,5.95L0.293,1.707
		c-0.391-0.391-0.391-1.023,0-1.414s1.023-0.391,1.414,0L5.95,4.536l4.243-4.243c0.391-0.391,1.023-0.391,1.414,0
		s0.391,1.023,0,1.414L7.364,5.95l4.243,4.243c0.391,0.391,0.391,1.023,0,1.414C11.412,11.803,11.156,11.9,10.9,11.9z"/>
</g>
</svg>
