<?xml version="1.0" encoding="iso-8859-1"?>
<!-- Generator: Adobe Illustrator 24.1.2, SVG Export Plug-In . SVG Version: 6.00 Build 0)  -->
<svg version="1.1" id="Layer_1" xmlns="http://www.w3.org/2000/svg" xmlns:xlink="http://www.w3.org/1999/xlink" x="0px" y="0px"
	 viewBox="0 0 24 24" style="enable-background:new 0 0 24 24;" xml:space="preserve">
<g id="Layer_2_1_">
	<path id="cross_filled-2_1_" style="fill:#E14504;" d="M12,0C5.373,0,0,5.373,0,12s5.373,12,12,12s12-5.373,12-12S18.627,0,12,0z
		 M17.66,16.24c0.392,0.392,0.392,1.028,0,1.42s-1.028,0.392-1.42,0L12,13.41l-4.24,4.25c-0.389,0.392-1.022,0.395-1.414,0.006
		c-0.002-0.002-0.004-0.004-0.006-0.006c-0.392-0.389-0.395-1.022-0.006-1.414c0.002-0.002,0.004-0.004,0.006-0.006L10.59,12
		L6.34,7.76c-0.392-0.392-0.392-1.028,0-1.42s1.028-0.392,1.42,0L12,10.59l4.24-4.25c0.392-0.392,1.028-0.392,1.42,0
		s0.392,1.028,0,1.42L13.41,12L17.66,16.24z"/>
</g>
</svg>
