<?xml version="1.0" encoding="iso-8859-1"?>
<!-- Generator: Adobe Illustrator 24.1.2, SVG Export Plug-In . SVG Version: 6.00 Build 0)  -->
<svg version="1.1" id="Layer_1" xmlns="http://www.w3.org/2000/svg" xmlns:xlink="http://www.w3.org/1999/xlink" x="0px" y="0px"
	 viewBox="0 0 28 27.92" style="enable-background:new 0 0 28 27.92;" xml:space="preserve">
<g id="Layer_2_1_">
	<path style="fill:#E14504;" d="M26,0h-3.62v14.76H26c1.113,0,2.023-0.887,2.05-2V2.05C28.05,0.918,27.132,0,26,0z"/>
	<path style="fill:#E14504;" d="M15.3,27l5.08-11.43V0H4.16c-1.002,0.013-1.848,0.749-2,1.74L0,15.46
		c-0.167,1.118,0.602,2.16,1.72,2.33c0.11,0.01,0.22,0.01,0.33,0h12.08l-2.41,7.25c0.031,0.943,0.442,1.834,1.14,2.47
		c0.353,0.325,0.841,0.459,1.31,0.36C14.663,27.775,15.082,27.452,15.3,27z"/>
</g>
</svg>
