<?xml version="1.0" encoding="iso-8859-1"?>
<!-- Generator: Adobe Illustrator 24.1.2, SVG Export Plug-In . SVG Version: 6.00 Build 0)  -->
<svg version="1.1" id="Layer_1" xmlns="http://www.w3.org/2000/svg" xmlns:xlink="http://www.w3.org/1999/xlink" x="0px" y="0px"
	 viewBox="0 0 32 31.92" style="enable-background:new 0 0 32 31.92;" xml:space="preserve">
<g id="Layer_2_1_">
	<path style="fill:#E14504;" d="M15.85,31.92c-0.875,0.004-1.718-0.325-2.36-0.92c-1.133-1.055-1.777-2.532-1.78-4.08
		c-0.015-0.106-0.015-0.214,0-0.32l1.6-4.78H4.09c-0.216,0.026-0.434,0.026-0.65,0c-1.062-0.156-2.017-0.733-2.65-1.6
		c-0.639-0.861-0.905-1.941-0.74-3l2.1-13.78c0.305-1.975,2.002-3.434,4-3.44H28c2.215,0.033,3.995,1.835,4,4.05v10.66
		c0,2.217-1.783,4.023-4,4.05h-4l-4.9,11c-0.478,1.052-1.429,1.813-2.56,2.05C16.314,31.87,16.083,31.906,15.85,31.92z M13.72,27.06
		c0.031,0.943,0.442,1.834,1.14,2.47c0.353,0.325,0.841,0.459,1.31,0.36c0.497-0.1,0.917-0.43,1.13-0.89l5.08-11.43V2H6.16
		c-1.002,0.013-1.848,0.749-2,1.74L2,17.46c-0.167,1.118,0.602,2.16,1.72,2.33c0.11,0.01,0.22,0.01,0.33,0h10.69
		c0.552-0.001,1.001,0.445,1.003,0.997c0,0.11-0.017,0.219-0.053,0.323L13.72,27.06z M24.38,16.76H28c1.113-0.027,2-0.937,2-2.05
		V4.05c0-1.113-0.887-2.023-2-2.05h-3.62L24.38,16.76z"/>
</g>
</svg>
