<?xml version="1.0" encoding="iso-8859-1"?>
<!-- Generator: Adobe Illustrator 24.1.2, SVG Export Plug-In . SVG Version: 6.00 Build 0)  -->
<svg version="1.1" id="Layer_1" xmlns="http://www.w3.org/2000/svg" xmlns:xlink="http://www.w3.org/1999/xlink" x="0px" y="0px"
	 viewBox="0 0 16 16" style="enable-background:new 0 0 16 16;" xml:space="preserve">
<g id="Layer_2_1_">
	<path style="fill:#E14504;" d="M12.13,16H2.39C1.072,16,0,14.928,0,13.61V3.87c0-1.318,1.072-2.39,2.39-2.39h4.87
		c0.552,0,1,0.448,1,1s-0.448,1-1,1H2.39C2.175,3.48,2,3.655,2,3.87v9.74C2,13.825,2.175,14,2.39,14h9.74
		c0.215,0,0.39-0.175,0.39-0.39V8.74c0-0.552,0.447-1,1-1s1,0.448,1,1v4.87C14.52,14.928,13.447,16,12.13,16z"/>
	<path style="fill:#E14504;" d="M5.21,11.83c-0.259,0-0.512-0.101-0.701-0.287c-0.249-0.244-0.352-0.601-0.272-0.94l0.66-2.83
		c0.042-0.183,0.136-0.35,0.269-0.482l6.61-6.57c0.012-0.012,0.024-0.023,0.036-0.034c0.492-0.442,1.117-0.666,1.791-0.632
		c0.661,0.036,1.27,0.327,1.712,0.82c0.848,0.944,0.848,2.369,0,3.313l-6.605,6.647C8.581,10.964,8.42,11.056,8.244,11.1l-2.79,0.7
		C5.373,11.82,5.291,11.83,5.21,11.83z M6.779,8.507L6.556,9.461l0.931-0.233l6.375-6.413c0.129-0.146,0.129-0.421-0.035-0.604
		c-0.115-0.128-0.257-0.154-0.331-0.158c-0.077-0.005-0.208,0.006-0.332,0.109L6.779,8.507z"/>
</g>
</svg>
