<?xml version="1.0" encoding="iso-8859-1"?>
<!-- Generator: Adobe Illustrator 24.1.2, SVG Export Plug-In . SVG Version: 6.00 Build 0)  -->
<svg version="1.1" id="Layer_1" xmlns="http://www.w3.org/2000/svg" xmlns:xlink="http://www.w3.org/1999/xlink" x="0px" y="0px"
	 viewBox="0 0 24 24" style="enable-background:new 0 0 24 24;" xml:space="preserve">
<g id="Layer_2_1_">
	<path style="fill:#E14504;" d="M17.52,6c-0.124,0.001-0.243,0.052-0.33,0.14l-6.42,6.41l-0.22,0.9l0.9-0.22l6.41-6.42
		c0.185-0.174,0.194-0.465,0.02-0.65c-0.006-0.007-0.013-0.013-0.02-0.02C17.77,6.05,17.647,6,17.52,6z"/>
	<path style="fill:#E14504;" d="M12,0C5.373,0,0,5.373,0,12s5.373,12,12,12s12-5.373,12-12S18.627,0,12,0z M18.52,17.61
		c0,1.32-1.07,2.39-2.39,2.39l0,0H6.39C5.07,20,4,18.93,4,17.61V7.87c0-1.32,1.07-2.39,2.39-2.39h4.87c0.552,0,1,0.448,1,1
		s-0.448,1-1,1H6.39C6.175,7.48,6,7.655,6,7.87v9.74c0.005,0.213,0.177,0.385,0.39,0.39h9.74c0.215,0,0.39-0.175,0.39-0.39v-4.87
		c0-0.552,0.448-1,1-1s1,0.448,1,1L18.52,17.61z M19.27,8.23l-6.6,6.61c-0.13,0.128-0.293,0.218-0.47,0.26l-2.78,0.69
		c-0.079,0.014-0.161,0.014-0.24,0c-0.267-0.001-0.523-0.109-0.71-0.3c-0.247-0.249-0.346-0.61-0.26-0.95L8.9,11.8
		c0.048-0.175,0.137-0.336,0.26-0.47l6.61-6.6c0.982-0.938,2.528-0.938,3.51,0C20.241,5.7,20.236,7.265,19.27,8.23z"/>
</g>
</svg>
