<svg xmlns="http://www.w3.org/2000/svg" viewBox="0 0 27.98 26.09"><g id="Layer_2" data-name="Layer 2"><g id="favourites_outline"><path d="M25.92,3.1A8.74,8.74,0,0,0,19.51,0,7.07,7.07,0,0,0,14,2.81,7.07,7.07,0,0,0,8.47,0,8.76,8.76,0,0,0,2.06,3.1c-2.36,2.45-3.4,8.07.81,12.24,1.74,1.72,10,10.22,10.06,10.3a1.49,1.49,0,0,0,1.06.45,1.53,1.53,0,0,0,1.07-.45c.07-.08,8.31-8.58,10.06-10.3C29.32,11.17,28.28,5.55,25.92,3.1ZM23.71,13.92c-1.57,1.55-8.08,8.26-9.72,9.94-1.64-1.68-8.15-8.39-9.72-9.94C1,10.66,1.71,6.34,3.5,4.48A6.89,6.89,0,0,1,8.47,2a5.41,5.41,0,0,1,4.64,3.1,1,1,0,0,0,1.76,0A5.42,5.42,0,0,1,19.51,2a6.89,6.89,0,0,1,5,2.48C26.27,6.34,27,10.66,23.71,13.92Z" fill="#e14504"/></g></g></svg>