<svg xmlns="http://www.w3.org/2000/svg" viewBox="0 0 41.12 38.26"><g id="Layer_2" data-name="Layer 2"><g id="heart_hands_outline"><path d="M38.15,3.72C35.5,1,32.85-.18,29.56,0c-3.59.22-5.94,1.63-9,4.31-3-2.68-5.4-4.09-9-4.31C8.28-.18,5.63,1,3,3.72c-3.42,3.54-4.9,11.67,1.2,17.72l1,1A1,1,0,1,0,6.6,21l-1-1c-5.19-5.13-4-12-1.17-14.91,2.24-2.32,4.34-3.25,7-3.08s4.63,1.07,7.66,3.7L9.7,15.11a1.67,1.67,0,0,0,0,2.41c3.06,2.85,5.39,1.76,6.81.34l5.77-5.77L32.59,22.36a1.24,1.24,0,0,1,0,1.73,1.22,1.22,0,0,1-1.73,0l-8-8a1,1,0,1,0-1.42,1.42l8.74,8.73a1.57,1.57,0,0,1,.46,1.12,1.56,1.56,0,0,1-.46,1.12,1.62,1.62,0,0,1-2.24,0l-8.85-8.84a1,1,0,0,0-1.42,0,1,1,0,0,0,0,1.41l9.2,9.19a1.22,1.22,0,0,1-1.52,1.89,3.3,3.3,0,0,0-.88-1.64,3.25,3.25,0,0,0-2-.89,2.48,2.48,0,0,0,0-.27,3.19,3.19,0,0,0-3.43-3.2,3.29,3.29,0,0,0-3.8-3.09,3.21,3.21,0,0,0-.91-1.88,3.26,3.26,0,0,0-4.59,0L8.38,22.63a3.25,3.25,0,0,0,0,4.59,3.19,3.19,0,0,0,1.84.91,3.42,3.42,0,0,0,0,.45,3.36,3.36,0,0,0,3.14,3.35,3.22,3.22,0,0,0,3.23,3.43l.24,0a3.18,3.18,0,0,0,.92,2,3.26,3.26,0,0,0,4.6,0l2.19-2.19a3.28,3.28,0,0,0,.62-.9,3.15,3.15,0,0,0,.91.15A3.22,3.22,0,0,0,29.24,31a3.51,3.51,0,0,0,2.38-1,3.56,3.56,0,0,0,1.05-2.54,3.72,3.72,0,0,0-.17-1.05,3.11,3.11,0,0,0,1.5-.83,3.2,3.2,0,0,0,.92-2c.88-.89,1.59-1.62,2-2C43.05,15.39,41.57,7.26,38.15,3.72ZM9.43,24.93A1.27,1.27,0,0,1,9.79,24l1.44-1.44a1.24,1.24,0,0,1,.88-.36,1.23,1.23,0,0,1,1.25,1.25,1.23,1.23,0,0,1-.35.87l-1.46,1.46a1.28,1.28,0,0,1-1.76,0A1.27,1.27,0,0,1,9.43,24.93Zm2.75,3.65a1.37,1.37,0,0,1,.4-1l.37-.36,0,0,1.43-1.43,0,0,.37-.37a1.35,1.35,0,0,1,1-.4,1.37,1.37,0,0,1,1,.4,1.4,1.4,0,0,1,.4,1,1.37,1.37,0,0,1-.4,1l-2.23,2.23a1.41,1.41,0,0,1-1.93,0A1.35,1.35,0,0,1,12.18,28.58ZM15.66,33a1.25,1.25,0,0,1-.36-.88,1.27,1.27,0,0,1,.36-.89l.27-.26,2.22-2.22.26-.26a1.24,1.24,0,0,1,1.77,0,1.23,1.23,0,0,1,0,1.76L17.43,33A1.29,1.29,0,0,1,15.66,33Zm7.42.72-2.19,2.18a1.24,1.24,0,0,1-1.76,0,1.23,1.23,0,0,1,0-1.76l2.19-2.19a1.27,1.27,0,0,1,1.76,0,1.22,1.22,0,0,1,.37.88A1.24,1.24,0,0,1,23.08,33.71ZM35.55,20c-.31.3-.75.74-1.27,1.27A3,3,0,0,0,34,21L23,10a1,1,0,0,0-.71-.3,1,1,0,0,0-.71.3l-6.48,6.48c-1.17,1.17-2.28,1.13-3.77-.16l9.88-9.88h0C24.75,3.23,26.73,2.2,29.69,2c2.67-.16,4.78.76,7,3.09C39.56,8.06,40.73,14.88,35.55,20Z" fill="#e14504"/></g></g></svg>