<?xml version="1.0" encoding="iso-8859-1"?>
<!-- Generator: Adobe Illustrator 24.1.2, SVG Export Plug-In . SVG Version: 6.00 Build 0)  -->
<svg version="1.1" id="Layer_1" xmlns="http://www.w3.org/2000/svg" xmlns:xlink="http://www.w3.org/1999/xlink" x="0px" y="0px"
	 viewBox="0 0 22 20.53" style="enable-background:new 0 0 22 20.53;" xml:space="preserve">
<g id="Layer_2_1_">
	<path style="fill:#E14504;" d="M11.02,20.53c-0.003,0-0.007,0-0.01,0l0,0c-0.002,0-0.004,0-0.006,0
		c-0.358-0.005-0.695-0.145-0.951-0.394c-0.258-0.273-6.458-6.657-7.757-7.946c-2.757-2.498-3.075-6.76-0.689-9.674
		c1.272-1.524,3.13-2.438,5.104-2.516C8.416,0.059,9.941,0.792,11,1.991c1.055-1.198,2.566-1.932,4.215-1.99
		c2.049,0.078,3.907,0.993,5.173,2.509c2.396,2.913,2.089,7.176-0.695,9.71c-1.271,1.265-7.468,7.645-7.688,7.878
		c-0.255,0.25-0.544,0.389-0.851,0.424C11.11,20.527,11.065,20.53,11.02,20.53z M6.714,2C5.379,2.055,4.052,2.708,3.147,3.791
		c-1.704,2.081-1.476,5.136,0.524,6.948c1.001,0.992,5.767,5.881,7.338,7.508c1.49-1.542,6.323-6.501,7.306-7.476
		c2.026-1.847,2.246-4.902,0.532-6.986c-0.899-1.077-2.227-1.73-3.637-1.786c-1.385,0.052-2.681,0.903-3.308,2.221
		C11.737,4.568,11.386,4.79,11,4.79s-0.737-0.222-0.903-0.57C9.47,2.902,8.173,2.051,6.714,2z"/>
</g>
</svg>
