<?xml version="1.0" encoding="iso-8859-1"?>
<!-- Generator: Adobe Illustrator 24.1.2, SVG Export Plug-In . SVG Version: 6.00 Build 0)  -->
<svg version="1.1" id="Layer_1" xmlns="http://www.w3.org/2000/svg" xmlns:xlink="http://www.w3.org/1999/xlink" x="0px" y="0px"
	 viewBox="0 0 26 26" style="enable-background:new 0 0 26 26;" xml:space="preserve">
<g id="Layer_2_1_">
	<path style="fill:#E14504;" d="M15.02,19.94h-4.04c-0.414,0-0.75-0.336-0.75-0.75V15.89h-3.3c-0.414,0-0.75-0.336-0.75-0.75V11.1
		c0-0.414,0.336-0.75,0.75-0.75h3.3v-3.3c0-0.414,0.336-0.75,0.75-0.75h4.04c0.414,0,0.75,0.336,0.75,0.75v3.3h3.301
		c0.414,0,0.75,0.336,0.75,0.75v4.04c0,0.414-0.336,0.75-0.75,0.75H15.77v3.301C15.77,19.604,15.434,19.94,15.02,19.94z
		 M11.73,18.44h2.54V15.14c0-0.414,0.336-0.75,0.75-0.75h3.301v-2.54H15.02c-0.414,0-0.75-0.336-0.75-0.75V7.8h-2.54v3.3
		c0,0.414-0.336,0.75-0.75,0.75h-3.3v2.54h3.3c0.414,0,0.75,0.336,0.75,0.75V18.44z"/>
	<path style="fill:#E14504;" d="M13,24.43c-6.236,0-11.31-5.073-11.31-11.31S6.764,1.81,13,1.81s11.31,5.074,11.31,11.31
		S19.236,24.43,13,24.43z M13,3.31c-5.409,0-9.81,4.401-9.81,9.81s4.401,9.81,9.81,9.81s9.81-4.4,9.81-9.81S18.409,3.31,13,3.31z"/>
</g>
</svg>
