<svg xmlns="http://www.w3.org/2000/svg" viewBox="0 0 32 24.5"><g id="Layer_2" data-name="Layer 2"><g id="home_outline"><path d="M31.62,12.22l-15-12a1,1,0,0,0-1.24,0l-15,12a1,1,0,0,0-.16,1.4,1,1,0,0,0,1.4.16L16,2.28l14.38,11.5A1,1,0,0,0,31,14a1,1,0,0,0,.78-.38A1,1,0,0,0,31.62,12.22Z" fill="#e14504"/><path d="M26.13,11.33a1,1,0,0,0-1,1V22.5H20V19a4,4,0,0,0-8,0v3.5H6.88V12.33a1,1,0,0,0-2,0V23.42A1.08,1.08,0,0,0,6,24.5h7a1,1,0,0,0,1-1V19a2,2,0,0,1,4,0v4.5a1,1,0,0,0,1,1h7a1.09,1.09,0,0,0,1.09-1.08V12.33A1,1,0,0,0,26.13,11.33Z" fill="#e14504"/></g></g></svg>