<?xml version="1.0" encoding="iso-8859-1"?>
<!-- Generator: Adobe Illustrator 24.1.2, SVG Export Plug-In . SVG Version: 6.00 Build 0)  -->
<svg version="1.1" id="Layer_1" xmlns="http://www.w3.org/2000/svg" xmlns:xlink="http://www.w3.org/1999/xlink" x="0px" y="0px"
	 viewBox="0 0 24 24" style="enable-background:new 0 0 24 24;" xml:space="preserve">
<g id="Layer_2_1_">
	<path id="info_filled-2_1_" style="fill:#E14504;" d="M12,0C5.373,0,0,5.373,0,12s5.373,12,12,12s12-5.373,12-12S18.627,0,12,0z
		 M12.9,5.26c0.552,0,1,0.448,1,1s-0.448,1-1,1s-1-0.448-1-1S12.348,5.26,12.9,5.26z M14.1,18.74c0,0.552-0.448,1-1,1s-1-0.448-1-1
		v-7h-2c-0.552,0-1-0.448-1-1s0.448-1,1-1h3c0.552,0,1,0.448,1,1V18.74z"/>
</g>
</svg>
