<?xml version="1.0" encoding="iso-8859-1"?>
<!-- Generator: Adobe Illustrator 24.1.2, SVG Export Plug-In . SVG Version: 6.00 Build 0)  -->
<svg version="1.1" id="Layer_1" xmlns="http://www.w3.org/2000/svg" xmlns:xlink="http://www.w3.org/1999/xlink" x="0px" y="0px"
	 viewBox="0 0 28 27.92" style="enable-background:new 0 0 28 27.92;" xml:space="preserve">
<g id="Layer_2_1_">
	<path style="fill:#E14504;" d="M16.28,2.86c-0.031-0.943-0.442-1.834-1.14-2.47C14.796,0.049,14.304-0.097,13.83,0
		c-0.502,0.095-0.925,0.432-1.13,0.9L7.62,12.37v15.55h16.22c1.001-0.017,1.845-0.751,2-1.74L28,12.46
		c0.167-1.118-0.602-2.16-1.72-2.33c-0.113-0.015-0.227-0.015-0.34,0H13.87L16.28,2.86z"/>
	<path style="fill:#E14504;" d="M5.62,27.92V13.15H2.05c-1.093,0.026-1.974,0.907-2,2v10.72c0,1.132,0.918,2.05,2.05,2.05H5.62z"/>
</g>
</svg>
