<?xml version="1.0" encoding="iso-8859-1"?>
<!-- Generator: Adobe Illustrator 24.1.2, SVG Export Plug-In . SVG Version: 6.00 Build 0)  -->
<svg version="1.1" id="Layer_1" xmlns="http://www.w3.org/2000/svg" xmlns:xlink="http://www.w3.org/1999/xlink" x="0px" y="0px"
	 viewBox="0 0 32 31.92" style="enable-background:new 0 0 32 31.92;" xml:space="preserve">
<g id="Layer_2_1_">
	<path style="fill:#E14504;" d="M25.85,31.92H4.05c-2.215-0.033-3.995-1.835-4-4.05V17.21c0-2.237,1.813-4.05,4.05-4.05H8l4.9-11
		c0.46-1.062,1.4-1.839,2.53-2.09c1.105-0.23,2.254,0.091,3.08,0.86c1.13,1.053,1.774,2.526,1.78,4.07
		c-0.001,0.109-0.018,0.216-0.05,0.32l-1.6,4.78h9.28c0.214-0.002,0.429,0.015,0.64,0.05c2.191,0.281,3.74,2.284,3.46,4.476
		c-0.006,0.045-0.012,0.09-0.02,0.134l-2.1,13.72C29.592,30.474,27.867,31.939,25.85,31.92z M9.62,29.92h16.22
		c1.002-0.013,1.848-0.749,2-1.74L30,14.46c0.167-1.118-0.602-2.16-1.72-2.33c-0.113-0.01-0.227-0.01-0.34,0H17.25
		c-0.322-0.001-0.623-0.158-0.81-0.42c-0.185-0.262-0.233-0.597-0.13-0.9l2-5.93c-0.031-0.943-0.442-1.834-1.14-2.47
		C16.818,2.062,16.317,1.909,15.83,2c-0.501,0.104-0.922,0.442-1.13,0.91L9.62,14.37L9.62,29.92z M4.05,15.16
		c-1.113,0.027-2,0.937-2,2.05v10.66c0,1.132,0.918,2.05,2.05,2.05h3.52V15.16H4.05z"/>
</g>
</svg>
