<?xml version="1.0" encoding="iso-8859-1"?>
<!-- Generator: Adobe Illustrator 24.1.2, SVG Export Plug-In . SVG Version: 6.00 Build 0)  -->
<svg version="1.1" id="Layer_1" xmlns="http://www.w3.org/2000/svg" xmlns:xlink="http://www.w3.org/1999/xlink" x="0px" y="0px"
	 viewBox="0 0 26 26" style="enable-background:new 0 0 26 26;" xml:space="preserve">
<g id="Layer_2_1_">
	<path style="fill:#E14504;" d="M20.79,24.66H5.21c-1.494,0-2.71-1.216-2.71-2.71V4.28c0-1.494,1.216-2.71,2.71-2.71h15.58
		c1.494,0,2.71,1.216,2.71,2.71v17.67C23.5,23.444,22.284,24.66,20.79,24.66z M5.21,3.07C4.543,3.07,4,3.613,4,4.28v17.67
		c0,0.667,0.543,1.21,1.21,1.21h15.58c0.667,0,1.21-0.543,1.21-1.21V4.28c0-0.667-0.543-1.21-1.21-1.21H5.21z"/>
	<path style="fill:#E14504;" d="M19.27,8.71H9.52c-0.414,0-0.75-0.336-0.75-0.75s0.336-0.75,0.75-0.75h9.75
		c0.414,0,0.75,0.336,0.75,0.75S19.684,8.71,19.27,8.71z"/>
	<circle style="fill:#E14504;" cx="6.81" cy="7.96" r="0.96"/>
	<path style="fill:#E14504;" d="M19.27,13.87H9.52c-0.414,0-0.75-0.336-0.75-0.75s0.336-0.75,0.75-0.75h9.75
		c0.414,0,0.75,0.336,0.75,0.75S19.684,13.87,19.27,13.87z"/>
	<circle style="fill:#E14504;" cx="6.81" cy="13.12" r="0.96"/>
	<path style="fill:#E14504;" d="M19.27,19.03H9.52c-0.414,0-0.75-0.336-0.75-0.75s0.336-0.75,0.75-0.75h9.75
		c0.414,0,0.75,0.336,0.75,0.75S19.684,19.03,19.27,19.03z"/>
	<circle style="fill:#E14504;" cx="6.81" cy="18.28" r="0.96"/>
</g>
</svg>
