<?xml version="1.0" encoding="iso-8859-1"?>
<!-- Generator: Adobe Illustrator 24.1.2, SVG Export Plug-In . SVG Version: 6.00 Build 0)  -->
<svg version="1.1" id="Layer_1" xmlns="http://www.w3.org/2000/svg" xmlns:xlink="http://www.w3.org/1999/xlink" x="0px" y="0px"
	 viewBox="0 0 32 32" style="enable-background:new 0 0 32 32;" xml:space="preserve">
<g id="Layer_2_1_">
	<path id="phone_filled-2_1_" style="fill:#FFB753;" d="M16,0C7.163,0,0,7.163,0,16s7.163,16,16,16s16-7.163,16-16S24.837,0,16,0z
		 M21.59,26.65l-3.27,0.73c-1.63,0.37-6.32-0.37-8.45-9.81c-2-9.07,2.14-12,3.45-12.32l3-0.67c0.419-0.09,0.856-0.015,1.22,0.21
		c0.48,0.337,0.74,0.907,0.68,1.49L18,9c-0.08,1.013-0.809,1.855-1.8,2.08L15,11.37c-1.175,0.26-1.917,1.424-1.657,2.6
		c0.002,0.01,0.005,0.02,0.007,0.03l1.15,5.09c0.263,1.169,1.424,1.904,2.593,1.642c0.002-0.001,0.005-0.001,0.007-0.002l1.21-0.27
		c1.052-0.238,2.129,0.28,2.6,1.25l1.67,3.39C23,25.77,22.29,26.49,21.59,26.65z"/>
</g>
</svg>
