<svg xmlns="http://www.w3.org/2000/svg" viewBox="0 0 13.37 22.91"><g id="Layer_2" data-name="Layer 2"><g id="phone_inner_filled"><path id="phone_inner_filled-2" data-name="phone_inner_filled" d="M7.79,16.17a2.18,2.18,0,0,1-2.61-1.65L4,9.43a2.17,2.17,0,0,1,1.64-2.6l1.19-.27a2.31,2.31,0,0,0,1.8-2.09l.21-2.74A1.61,1.61,0,0,0,8.19.25,1.61,1.61,0,0,0,7,0L4,.71C2.7,1-1.49,4,.55,13,2.69,22.46,7.38,23.21,9,22.84l3.26-.74c.71-.16,1.36-.88,1-1.56l-1.66-3.4A2.33,2.33,0,0,0,9,15.9Z" fill="#fff"/></g></g></svg>