<?xml version="1.0" encoding="utf-8"?>
<!-- Generator: Adobe Illustrator 24.3.0, SVG Export Plug-In . SVG Version: 6.00 Build 0)  -->
<svg version="1.1" id="Layer_1" xmlns="http://www.w3.org/2000/svg" xmlns:xlink="http://www.w3.org/1999/xlink" x="0px" y="0px"
	 viewBox="0 0 28 28" style="enable-background:new 0 0 28 28;" xml:space="preserve">
<style type="text/css">
	.st0{fill:#E14504;}
</style>
<path class="st0" d="M14,0C6.2,0,0,6.3,0,14s6.3,14,14,14s14-6.3,14-14S21.7,0,14,0z M14,25.9c-6.6,0-12-5.4-12-12s5.4-12,12-12
	s12,5.4,12,12S20.6,25.9,14,25.9z"/>
<path id="Polygon_1" class="st0" d="M20,13.2c0.5,0.3,0.6,0.9,0.4,1.3c-0.1,0.2-0.2,0.3-0.4,0.4l-8.4,4.8c-0.5,0.3-1.1,0.1-1.3-0.4
	c-0.1-0.1-0.1-0.3-0.1-0.5V9.2c0-0.5,0.4-1,1-1c0.2,0,0.3,0,0.5,0.1L20,13.2z"/>
</svg>
