<?xml version="1.0" encoding="iso-8859-1"?>
<!-- Generator: Adobe Illustrator 24.1.2, SVG Export Plug-In . SVG Version: 6.00 Build 0)  -->
<svg version="1.1" id="Layer_1" xmlns="http://www.w3.org/2000/svg" xmlns:xlink="http://www.w3.org/1999/xlink" x="0px" y="0px"
	 viewBox="0 0 24 24" style="enable-background:new 0 0 24 24;" xml:space="preserve">
<g id="Layer_2_1_">
	<path id="plus_filled-2_1_" style="fill:#E14504;" d="M12,0C5.373,0,0,5.373,0,12s5.373,12,12,12s12-5.373,12-12S18.627,0,12,0z
		 M19,13h-6v6c0,0.552-0.448,1-1,1s-1-0.448-1-1v-6H5c-0.552,0-1-0.448-1-1s0.448-1,1-1h6V5c0-0.552,0.448-1,1-1s1,0.448,1,1v6h6
		c0.552,0,1,0.448,1,1S19.552,13,19,13z"/>
</g>
</svg>
