<?xml version="1.0" encoding="iso-8859-1"?>
<!-- Generator: Adobe Illustrator 24.1.2, SVG Export Plug-In . SVG Version: 6.00 Build 0)  -->
<svg version="1.1" id="Layer_1" xmlns="http://www.w3.org/2000/svg" xmlns:xlink="http://www.w3.org/1999/xlink" x="0px" y="0px"
	 viewBox="0 0 32 32" style="enable-background:new 0 0 32 32;" xml:space="preserve">
<g id="Layer_2_1_">
	<path style="fill:#E14504;" d="M29,16.56h-9.21c-0.553,0-1-0.448-1-1s0.447-1,1-1H28V10.2H4v4.36h8.16c0.552,0,1,0.448,1,1
		s-0.448,1-1,1H3c-0.552,0-1-0.448-1-1V9.2c0-0.552,0.448-1,1-1h26c0.553,0,1,0.448,1,1v6.36C30,16.112,29.553,16.56,29,16.56z"/>
	<path style="fill:#E14504;" d="M29,27.49H3c-0.552,0-1-0.447-1-1V15.56c0-0.552,0.448-1,1-1h9.16c0.552,0,1,0.448,1,1s-0.448,1-1,1
		H4v8.93h24v-8.93h-8.21c-0.553,0-1-0.448-1-1s0.447-1,1-1H29c0.553,0,1,0.448,1,1v10.93C30,27.043,29.553,27.49,29,27.49z"/>
	<path style="fill:#E14504;" d="M19.07,18.5h-6.18c-0.552,0-1-0.447-1-1v-3.88c0-0.552,0.448-1,1-1h6.18c0.553,0,1,0.448,1,1v3.88
		C20.07,18.053,19.623,18.5,19.07,18.5z M13.89,16.5h4.18v-1.88h-4.18V16.5z"/>
	<path style="fill:#E14504;" d="M20.48,10.2h-8.96c-0.552,0-1-0.448-1-1V5.11c0-0.552,0.448-1,1-1h8.96c0.553,0,1,0.448,1,1V9.2
		C21.48,9.752,21.033,10.2,20.48,10.2z M12.52,8.2h6.96V6.11h-6.96V8.2z"/>
</g>
</svg>
